<svg width="1438" height="384" viewBox="0 0 1438 384" fill="none" xmlns="http://www.w3.org/2000/svg">
<g clip-path="url(#clip0_1_18)">
<path d="M163.99 0C171.46 1.21 179.07 1.87 186.38 3.71C248.19 19.3 287.26 58.14 303.06 119.8C311.5 152.76 306.11 184.56 292.28 215.27C278.49 245.9 259.45 273.08 238.1 298.77C213 328.97 185.4 356.7 155.21 381.83C154.74 382.22 154.23 382.57 153.4 383.19C148.21 378.77 142.91 374.47 137.84 369.91C102.28 337.96 69.65 303.36 42.43 263.92C26.57 240.94 12.89 216.76 5.46 189.64C-6.71 145.21 1.81 104.02 27.39 66.46C50.21 32.96 82.12 12.16 121.71 3.39C128.72 1.84 135.92 1.11 143.03 0C150.02 0 157 0 163.99 0ZM268.24 194.93C289.02 145.65 270.88 85.84 225.7 53.29C178.5 19.27 114.99 22.54 71.12 61.6C30.99 97.32 20.61 153.46 38.6 193.82C76.65 160.78 114.65 127.79 152.77 94.7C173.48 112.66 193.89 130.38 215.06 148.74V125.2C215.06 116.98 221.72 110.32 229.94 110.32C238.16 110.32 244.82 116.98 244.82 125.2C244.82 139.18 244.82 159.65 244.86 171.56C244.86 172.83 244.97 174.59 245.76 175.31C253.06 181.87 260.53 188.26 268.24 194.94V194.93ZM152.76 134.33C118.78 163.85 85.19 193.01 51.44 222.32C78.56 268.9 114.47 307.56 153.99 344.24C168.66 329.29 183.28 314.99 197.22 300.04C218.35 277.37 237.45 253.09 253.22 226.3C254.58 223.99 254.7 222.7 252.46 220.77C227.61 199.36 202.88 177.81 178.11 156.3C169.74 149.04 161.37 141.79 152.75 134.32L152.76 134.33Z" fill="#0085FF"/>
<path d="M152.74 204.61H152.72C140.448 204.61 130.5 214.558 130.5 226.83C130.5 239.102 140.448 249.05 152.72 249.05H152.74C165.012 249.05 174.96 239.102 174.96 226.83C174.96 214.558 165.012 204.61 152.74 204.61Z" fill="#0085FF"/>
<path d="M459.56 175.59C458.69 175.59 457.89 175.37 457.15 174.94C456.41 174.51 455.58 173.92 454.64 173.18L454.44 173.08C453.17 171.81 451.53 170.4 449.52 168.86C447.51 167.32 445.27 165.88 442.79 164.54C440.31 163.2 437.65 162.06 434.81 161.12C431.96 160.18 429.07 159.71 426.12 159.71C422.37 159.71 419.06 160.13 416.18 160.96C413.3 161.8 410.89 162.94 408.95 164.38C407.01 165.82 405.54 167.51 404.53 169.45C403.53 171.39 403.02 173.47 403.02 175.68C403.02 178.09 403.77 180.2 405.28 182.01C406.79 183.82 408.83 185.42 411.4 186.83C413.97 188.24 416.94 189.53 420.29 190.7C423.64 191.87 427.15 193.03 430.83 194.16C435.05 195.43 439.23 196.81 443.38 198.28C447.53 199.75 451.5 201.41 455.28 203.25C459.06 205.09 462.59 207.13 465.87 209.38C469.15 211.62 471.98 214.2 474.36 217.11C476.74 220.02 478.61 223.27 479.98 226.85C481.35 230.43 482.04 234.47 482.04 238.95C482.04 246.25 480.57 252.84 477.62 258.73C474.67 264.62 470.61 269.66 465.42 273.84C460.23 278.02 454.14 281.24 447.14 283.48C440.14 285.72 432.63 286.84 424.59 286.84C419.43 286.84 414.31 286.24 409.23 285.03C404.14 283.82 399.25 282.12 394.57 279.91C389.88 277.7 385.45 275.04 381.26 271.93C377.08 268.82 373.34 265.32 370.06 261.44V261.54L369.86 261.14C368.39 259.47 367.65 257.93 367.65 256.52C367.65 255.78 367.85 255.08 368.25 254.41C368.65 253.74 369.25 253 370.06 252.2L373.37 248.89C374.37 248.02 375.45 247.05 376.58 245.98C377.72 244.91 378.86 243.94 380 243.07C381.14 242.2 382.19 241.46 383.16 240.86C384.13 240.26 384.92 239.96 385.52 239.96C386.46 239.96 387.33 240.26 388.13 240.86C388.93 241.46 389.6 242.03 390.14 242.57L390.54 242.97H390.44C392.78 245.18 395.41 247.29 398.32 249.3C401.23 251.31 404.23 253.1 407.31 254.67C410.39 256.24 413.45 257.48 416.5 258.39C419.55 259.29 422.41 259.75 425.09 259.75C428.77 259.75 432.22 259.28 435.43 258.34C438.64 257.4 441.42 256.08 443.77 254.37C446.11 252.66 447.95 250.6 449.29 248.19C450.63 245.78 451.3 243.1 451.3 240.16C451.3 237.22 450.43 234.69 448.69 232.58C446.95 230.47 444.67 228.63 441.86 227.06C439.05 225.49 435.88 224.13 432.37 222.99C428.86 221.85 425.32 220.78 421.78 219.78C413.61 217.3 406.47 214.63 400.34 211.75C394.21 208.87 389.11 205.64 385.02 202.06C380.94 198.48 377.87 194.46 375.83 190.01C373.79 185.56 372.77 180.55 372.77 175C372.77 168.77 374.03 163.1 376.54 157.98C379.05 152.86 382.62 148.47 387.24 144.82C391.86 141.17 397.42 138.33 403.91 136.28C410.4 134.24 417.67 133.22 425.7 133.22C431.79 133.22 437.99 134.17 444.28 136.08C450.57 137.99 456.4 140.62 461.75 143.96C463.36 144.96 465 146.1 466.67 147.37C468.34 148.64 469.88 149.93 471.29 151.24C472.7 152.55 473.85 153.82 474.75 155.06C475.65 156.3 476.11 157.35 476.11 158.22C476.11 159.02 475.91 159.84 475.51 160.68C475.11 161.52 474.61 162.27 474 162.94L470.99 166.15V166.05C469.99 167.12 468.95 168.23 467.88 169.36C466.81 170.5 465.74 171.52 464.67 172.42C463.6 173.32 462.63 174.08 461.76 174.68C460.89 175.28 460.15 175.58 459.55 175.58L459.56 175.59Z" fill="#0085FF"/>
<path d="M538.89 284.95C533.6 284.88 528.63 284.08 523.98 282.54C519.33 281 515.28 278.77 511.83 275.86C508.38 272.94 505.65 269.36 503.65 265.1C501.64 260.84 500.64 256 500.64 250.57V182.72H489.09C487.15 182.72 485.69 182.29 484.72 181.42C483.75 180.55 483.26 179.12 483.26 177.12V162.72C483.26 160.79 483.75 159.42 484.72 158.62C485.69 157.82 487.15 157.42 489.09 157.42H500.64C500.64 153.87 500.66 150.34 500.69 146.82C500.72 143.31 500.74 139.78 500.74 136.23C500.74 134.89 501.16 133.84 502 133.07C502.84 132.3 504.12 131.61 505.87 131.01C507.01 130.61 508.38 130.12 509.99 129.55C511.6 128.98 513.25 128.43 514.96 127.89C516.67 127.35 518.32 126.9 519.93 126.53C521.54 126.16 522.88 125.98 523.95 125.98C526.02 125.98 527.38 126.55 528.02 127.69C528.66 128.83 528.97 130.34 528.97 132.21C528.97 136.43 528.95 140.63 528.92 144.81C528.88 148.99 528.87 153.19 528.87 157.41H543.33C545.07 157.41 546.41 157.86 547.35 158.76C548.29 159.66 548.76 161.08 548.76 163.01V176.71C548.76 178.84 548.29 180.38 547.35 181.31C546.41 182.24 545.07 182.71 543.33 182.71H528.87V201.77C528.87 204.08 528.89 206.24 528.92 208.26C528.95 210.27 528.97 212.45 528.97 214.8V233.9C528.97 234.04 528.95 234.17 528.92 234.3C528.88 234.44 528.87 234.57 528.87 234.7V247.87C528.87 252.29 529.74 255.48 531.48 257.42C533.22 259.36 536.03 260.34 539.92 260.34C541.33 260.34 542.43 260.84 543.23 261.85C544.03 262.85 544.44 264.06 544.44 265.47V279.43C544.44 281.17 543.95 282.53 542.98 283.5C542.01 284.47 540.65 284.96 538.91 284.96L538.89 284.95Z" fill="#0085FF"/>
<path d="M684.61 279.03C684.61 280.24 684.36 281.22 683.86 281.99C683.36 282.76 682.7 283.36 681.9 283.8C681.1 284.24 680.18 284.54 679.14 284.7C678.1 284.87 677.01 284.95 675.88 284.95H663.33C661.19 284.95 659.7 284.38 658.86 283.24C658.02 282.1 657.4 280.66 657 278.92L656.4 270.38C654.06 272.72 651.46 274.92 648.62 276.96C645.77 279 642.71 280.78 639.43 282.28C636.15 283.79 632.67 284.96 628.99 285.79C625.31 286.63 621.52 287.05 617.64 287.05C611.61 287.05 605.81 286.26 600.22 284.69C594.63 283.12 589.39 280.91 584.5 278.06C579.61 275.22 575.18 271.78 571.19 267.77C567.21 263.75 563.79 259.3 560.95 254.41C558.1 249.52 555.89 244.27 554.32 238.64C552.75 233.02 551.96 227.16 551.96 221.07C551.96 214.98 552.75 209.12 554.32 203.5C555.89 197.88 558.1 192.62 560.95 187.73C563.79 182.84 567.21 178.41 571.19 174.42C575.17 170.43 579.61 167.02 584.5 164.18C589.39 161.34 594.63 159.13 600.22 157.55C605.81 155.98 611.62 155.19 617.64 155.19C621.92 155.19 626.01 155.64 629.89 156.55C633.77 157.45 637.4 158.73 640.79 160.37C644.17 162.01 647.3 163.99 650.18 166.29C653.06 168.6 655.67 171.13 658.01 173.87L659.42 163.12C659.75 161.91 660.07 160.93 660.37 160.16C660.67 159.39 661.04 158.77 661.47 158.3C661.91 157.83 662.46 157.51 663.13 157.35C663.8 157.18 664.64 157.1 665.64 157.1H675.68C676.75 157.1 677.82 157.2 678.89 157.4C679.96 157.6 680.93 157.92 681.8 158.35C682.67 158.79 683.36 159.39 683.86 160.16C684.36 160.93 684.61 161.88 684.61 163.02V279.01V279.03ZM580.17 221.08C580.17 226.44 581.11 231.51 582.98 236.29C584.85 241.08 587.46 245.28 590.81 248.89C594.16 252.51 598.09 255.37 602.61 257.48C607.13 259.59 612.07 260.64 617.42 260.64C622.77 260.64 627.92 259.59 632.63 257.48C637.35 255.37 641.45 252.51 644.93 248.89C648.41 245.27 651.16 241.07 653.17 236.29C655.18 231.5 656.18 226.43 656.18 221.08C656.18 215.73 655.18 210.75 653.17 205.97C651.16 201.18 648.42 196.98 644.93 193.37C641.45 189.75 637.35 186.88 632.63 184.73C627.91 182.59 622.84 181.52 617.42 181.52C612 181.52 607.13 182.59 602.61 184.73C598.09 186.87 594.16 189.75 590.81 193.37C587.46 196.99 584.85 201.19 582.98 205.97C581.1 210.76 580.17 215.8 580.17 221.08Z" fill="#0085FF"/>
<path d="M744.36 321.81C743.76 323.28 742.99 324.37 742.05 325.07C741.11 325.77 739.87 326.12 738.33 326.12H719.45C717.57 326.12 716.29 325.8 715.58 325.17C714.88 324.53 714.53 323.75 714.53 322.81C714.53 322.34 714.61 321.67 714.78 320.8C714.95 319.93 715.1 319.43 715.23 319.29L732.9 274.2L688.11 165.04C688.11 164.91 688.07 164.81 688.01 164.74V163.84C687.67 163.1 687.51 162.27 687.51 161.33C687.51 160.19 687.91 159.29 688.72 158.62C689.52 157.95 690.76 157.62 692.43 157.62H710.61C713.49 157.62 715.46 159.03 716.53 161.84L718.34 166.56C719.68 170.31 721.18 174.51 722.86 179.16C724.53 183.81 726.28 188.62 728.08 193.57C729.89 198.53 731.71 203.5 733.55 208.48C735.39 213.47 737.13 218.16 738.77 222.54C740.41 226.93 741.9 230.87 743.24 234.39C744.58 237.9 745.65 240.67 746.45 242.67L776.18 161.83C776.78 160.36 777.55 159.27 778.49 158.57C779.43 157.87 780.66 157.52 782.21 157.52H801.09C802.96 157.52 804.25 157.84 804.96 158.47C805.66 159.11 806.01 159.89 806.01 160.83C806.01 161.3 805.93 161.97 805.76 162.84C805.59 163.71 805.44 164.21 805.31 164.35L744.35 321.82L744.36 321.81Z" fill="#0085FF"/>
<path d="M903.43 251.51C904.57 250.77 905.52 250.32 906.29 250.15C907.06 249.98 907.71 249.9 908.25 249.9C909.39 249.97 910.36 250.57 911.16 251.71L913.57 255.02L920.7 265.16C921.03 265.63 921.3 266.11 921.5 266.62C921.7 267.12 921.8 267.57 921.8 267.98C921.8 269.05 921.43 270.01 920.7 270.84C919.96 271.68 918.99 272.53 917.79 273.4C912.1 277.55 905.96 280.9 899.36 283.44C892.77 285.98 885.52 287.26 877.62 287.26C871.66 287.26 865.89 286.47 860.3 284.9C854.71 283.33 849.49 281.12 844.63 278.27C839.78 275.43 835.34 272.01 831.32 268.03C827.3 264.05 823.84 259.61 820.93 254.72C818.02 249.83 815.77 244.58 814.2 238.95C812.63 233.33 811.84 227.47 811.84 221.37C811.84 215.27 812.63 209.42 814.2 203.8C815.77 198.18 818.02 192.92 820.93 188.03C823.84 183.14 827.31 178.71 831.32 174.72C835.34 170.74 839.77 167.32 844.63 164.48C849.48 161.64 854.71 159.43 860.3 157.85C865.89 156.28 871.66 155.49 877.62 155.49C885.05 155.49 892.08 156.63 898.71 158.9C905.34 161.18 911.23 164.26 916.38 168.14L916.28 168.04C917.22 168.98 918.14 169.8 919.04 170.5C919.94 171.2 920.4 172.29 920.4 173.76C920.4 174.16 920.38 174.63 920.35 175.17C920.32 175.71 920.13 176.21 919.8 176.68L911.57 189.23C910.23 191.24 908.76 192.24 907.15 192.24C906.01 192.24 904.74 191.67 903.33 190.53C899.92 187.65 895.93 185.31 891.38 183.5C886.83 181.69 882.14 180.79 877.32 180.79C872.1 180.79 867.19 181.88 862.61 184.05C858.02 186.23 853.99 189.17 850.51 192.89C847.03 196.61 844.28 200.92 842.28 205.84C840.27 210.76 839.27 215.93 839.27 221.36C839.27 226.79 840.27 232.14 842.28 237.03C844.29 241.92 847.02 246.17 850.46 249.78C853.91 253.4 857.94 256.26 862.56 258.37C867.18 260.48 872.1 261.53 877.32 261.53C883.01 261.53 887.93 260.54 892.08 258.57C896.23 256.6 900.01 254.24 903.43 251.49V251.51Z" fill="#0085FF"/>
<path d="M1058.78 279.03C1058.78 280.24 1058.53 281.22 1058.03 281.99C1057.53 282.76 1056.87 283.36 1056.07 283.8C1055.27 284.24 1054.35 284.54 1053.31 284.7C1052.27 284.87 1051.18 284.95 1050.05 284.95H1037.5C1035.36 284.95 1033.87 284.38 1033.03 283.24C1032.19 282.1 1031.57 280.66 1031.17 278.92L1030.57 270.38C1028.23 272.72 1025.63 274.92 1022.79 276.96C1019.94 279 1016.88 280.78 1013.6 282.28C1010.32 283.79 1006.84 284.96 1003.16 285.79C999.48 286.63 995.69 287.05 991.81 287.05C985.78 287.05 979.98 286.26 974.39 284.69C968.8 283.12 963.56 280.91 958.67 278.06C953.78 275.22 949.35 271.78 945.36 267.77C941.38 263.75 937.96 259.3 935.12 254.41C932.27 249.52 930.06 244.27 928.49 238.64C926.92 233.02 926.13 227.16 926.13 221.07C926.13 214.98 926.92 209.12 928.49 203.5C930.06 197.88 932.27 192.62 935.12 187.73C937.96 182.84 941.38 178.41 945.36 174.42C949.34 170.43 953.78 167.02 958.67 164.18C963.56 161.34 968.8 159.13 974.39 157.55C979.98 155.98 985.79 155.19 991.81 155.19C996.09 155.19 1000.18 155.64 1004.06 156.55C1007.94 157.45 1011.57 158.73 1014.96 160.37C1018.34 162.01 1021.47 163.99 1024.35 166.29C1027.23 168.6 1029.84 171.13 1032.18 173.87L1033.59 163.12C1033.92 161.91 1034.24 160.93 1034.54 160.16C1034.84 159.39 1035.21 158.77 1035.64 158.3C1036.08 157.83 1036.63 157.51 1037.3 157.35C1037.97 157.18 1038.81 157.1 1039.81 157.1H1049.85C1050.92 157.1 1051.99 157.2 1053.06 157.4C1054.13 157.6 1055.1 157.92 1055.97 158.35C1056.84 158.79 1057.53 159.39 1058.03 160.16C1058.53 160.93 1058.78 161.88 1058.78 163.02V279.01V279.03ZM954.34 221.08C954.34 226.44 955.28 231.51 957.15 236.29C959.02 241.08 961.63 245.28 964.98 248.89C968.33 252.51 972.26 255.37 976.78 257.48C981.3 259.59 986.24 260.64 991.59 260.64C996.94 260.64 1002.09 259.59 1006.8 257.48C1011.52 255.37 1015.62 252.51 1019.1 248.89C1022.58 245.27 1025.33 241.07 1027.34 236.29C1029.35 231.5 1030.35 226.43 1030.35 221.08C1030.35 215.73 1029.35 210.75 1027.34 205.97C1025.33 201.18 1022.59 196.98 1019.1 193.37C1015.62 189.75 1011.52 186.88 1006.8 184.73C1002.08 182.59 997.01 181.52 991.59 181.52C986.17 181.52 981.3 182.59 976.78 184.73C972.26 186.87 968.33 189.75 964.98 193.37C961.63 196.99 959.02 201.19 957.15 205.97C955.27 210.76 954.34 215.8 954.34 221.08Z" fill="#0085FF"/>
<path d="M1118.83 284.95C1113.54 284.88 1108.57 284.08 1103.92 282.54C1099.27 281 1095.22 278.77 1091.77 275.86C1088.32 272.94 1085.59 269.36 1083.59 265.1C1081.58 260.84 1080.58 256 1080.58 250.57V182.72H1069.03C1067.09 182.72 1065.63 182.29 1064.66 181.42C1063.69 180.55 1063.2 179.12 1063.2 177.12V162.72C1063.2 160.79 1063.69 159.42 1064.66 158.62C1065.63 157.82 1067.09 157.42 1069.03 157.42H1080.58C1080.58 153.87 1080.6 150.34 1080.63 146.82C1080.66 143.31 1080.68 139.78 1080.68 136.23C1080.68 134.89 1081.1 133.84 1081.94 133.07C1082.78 132.3 1084.06 131.61 1085.81 131.01C1086.95 130.61 1088.32 130.12 1089.93 129.55C1091.54 128.98 1093.19 128.43 1094.9 127.89C1096.61 127.35 1098.26 126.9 1099.87 126.53C1101.48 126.16 1102.82 125.98 1103.89 125.98C1105.96 125.98 1107.32 126.55 1107.96 127.69C1108.6 128.83 1108.91 130.34 1108.91 132.21C1108.91 136.43 1108.89 140.63 1108.86 144.81C1108.82 148.99 1108.81 153.19 1108.81 157.41H1123.27C1125.01 157.41 1126.35 157.86 1127.29 158.76C1128.23 159.66 1128.7 161.08 1128.7 163.01V176.71C1128.7 178.84 1128.23 180.38 1127.29 181.31C1126.35 182.24 1125.01 182.71 1123.27 182.71H1108.81V201.77C1108.81 204.08 1108.83 206.24 1108.86 208.26C1108.89 210.27 1108.91 212.45 1108.91 214.8V233.9C1108.91 234.04 1108.89 234.17 1108.86 234.3C1108.82 234.44 1108.81 234.57 1108.81 234.7V247.87C1108.81 252.29 1109.68 255.48 1111.42 257.42C1113.16 259.36 1115.97 260.34 1119.86 260.34C1121.27 260.34 1122.37 260.84 1123.17 261.85C1123.97 262.85 1124.38 264.06 1124.38 265.47V279.43C1124.38 281.17 1123.89 282.53 1122.92 283.5C1121.95 284.47 1120.59 284.96 1118.85 284.96L1118.83 284.95Z" fill="#0085FF"/>
<path d="M1136.71 119.07C1136.71 115.04 1138.68 113.02 1142.63 113.02H1159.5C1161.37 113.02 1162.88 113.52 1164.02 114.53C1165.16 115.54 1165.73 117.05 1165.73 119.07V134.09C1165.73 135.63 1165.19 137.1 1164.12 138.47C1163.05 139.85 1161.54 140.54 1159.6 140.54H1142.73C1138.71 140.54 1136.7 138.39 1136.7 134.09V119.07H1136.71ZM1136.71 163.54C1136.71 161.8 1137.21 160.34 1138.22 159.17C1139.22 158 1140.7 157.41 1142.64 157.41H1159.31C1160.05 157.41 1160.8 157.56 1161.57 157.86C1162.34 158.16 1163.03 158.6 1163.63 159.17C1164.23 159.74 1164.73 160.39 1165.14 161.13C1165.54 161.87 1165.74 162.67 1165.74 163.54V278.93C1165.74 282.95 1163.63 284.96 1159.41 284.96H1142.74C1138.72 284.96 1136.71 282.95 1136.71 278.93V163.54Z" fill="#0085FF"/>
<path d="M1181.7 221.38C1181.7 215.29 1182.49 209.41 1184.06 203.76C1185.63 198.1 1187.86 192.83 1190.73 187.94C1193.61 183.05 1197.05 178.62 1201.07 174.63C1205.08 170.65 1209.53 167.23 1214.42 164.39C1219.3 161.54 1224.54 159.34 1230.12 157.76C1235.71 156.19 1241.54 155.4 1247.63 155.4C1253.72 155.4 1259.47 156.19 1265.09 157.76C1270.71 159.33 1275.94 161.54 1280.79 164.39C1285.64 167.24 1290.07 170.65 1294.09 174.63C1298.1 178.61 1301.55 183.05 1304.42 187.94C1307.3 192.83 1309.52 198.1 1311.09 203.76C1312.66 209.42 1313.45 215.29 1313.45 221.38C1313.45 227.47 1312.66 233.33 1311.09 238.96C1309.52 244.58 1307.29 249.82 1304.42 254.68C1301.54 259.54 1298.1 263.97 1294.09 267.99C1290.08 272.01 1285.64 275.44 1280.79 278.28C1275.94 281.13 1270.71 283.34 1265.09 284.91C1259.47 286.48 1253.65 287.27 1247.63 287.27C1241.61 287.27 1235.7 286.48 1230.12 284.91C1224.54 283.34 1219.3 281.13 1214.42 278.28C1209.54 275.44 1205.09 272 1201.07 267.99C1197.06 263.97 1193.61 259.54 1190.73 254.68C1187.85 249.83 1185.63 244.59 1184.06 238.96C1182.49 233.34 1181.7 227.48 1181.7 221.38ZM1210.02 221.38C1210.02 226.74 1210.96 231.81 1212.83 236.59C1214.7 241.38 1217.31 245.55 1220.66 249.09C1224.01 252.64 1227.97 255.45 1232.56 257.53C1237.14 259.61 1242.15 260.64 1247.57 260.64C1252.99 260.64 1257.76 259.6 1262.28 257.53C1266.8 255.46 1270.7 252.64 1273.98 249.09C1277.26 245.54 1279.82 241.37 1281.66 236.59C1283.5 231.8 1284.42 226.73 1284.42 221.38C1284.42 216.03 1283.5 211.04 1281.66 206.22C1279.82 201.4 1277.26 197.17 1273.98 193.52C1270.7 189.87 1266.8 186.96 1262.28 184.78C1257.76 182.61 1252.86 181.52 1247.57 181.52C1242.28 181.52 1237.14 182.61 1232.56 184.78C1227.97 186.96 1224.01 189.87 1220.66 193.52C1217.31 197.17 1214.7 201.4 1212.83 206.22C1210.95 211.04 1210.02 216.1 1210.02 221.38Z" fill="#0085FF"/>
<path d="M1325.71 160.33C1326.51 159.26 1327.28 158.59 1328.02 158.32C1328.56 157.78 1329.36 157.5 1330.43 157.47C1331.5 157.44 1332.5 157.42 1333.44 157.42H1343.58C1345.52 157.42 1346.96 158.06 1347.9 159.33C1348.84 160.6 1349.47 162.01 1349.81 163.55L1350.92 174.2C1352.46 171.92 1354.35 169.68 1356.59 167.47C1358.83 165.26 1361.49 163.29 1364.57 161.55C1367.65 159.81 1371.16 158.4 1375.11 157.33C1379.06 156.26 1383.51 155.72 1388.47 155.72C1396.37 155.72 1403.4 157.14 1409.56 159.99C1415.72 162.84 1420.91 166.74 1425.13 171.69C1429.35 176.65 1432.54 182.47 1434.72 189.16C1436.89 195.86 1437.98 203.05 1437.98 210.75V277.73C1437.98 280.14 1437.41 281.95 1436.27 283.15C1435.13 284.36 1433.49 284.96 1431.35 284.96H1416.09C1413.41 284.96 1411.62 284.46 1410.72 283.45C1409.82 282.45 1409.36 280.67 1409.36 278.13V211.25C1409.36 207.7 1408.76 204.24 1407.55 200.86C1406.34 197.48 1404.59 194.45 1402.28 191.77C1399.97 189.09 1397.11 186.95 1393.69 185.34C1390.28 183.73 1386.32 182.93 1381.84 182.93C1378.76 182.93 1375.56 183.55 1372.25 184.79C1368.94 186.03 1365.91 187.79 1363.16 190.06C1360.41 192.34 1358.14 195.1 1356.33 198.35C1354.52 201.6 1353.58 205.26 1353.52 209.35V274.43C1353.52 275.7 1353.45 276.98 1353.32 278.25C1353.18 279.52 1352.9 280.66 1352.47 281.66C1352.03 282.66 1351.42 283.47 1350.61 284.07C1349.8 284.67 1348.77 284.97 1347.5 284.97H1330.93C1328.72 284.97 1327.1 284.45 1326.06 283.41C1325.02 282.37 1324.5 280.88 1324.5 278.94V163.35C1324.5 162.41 1324.9 161.41 1325.71 160.34V160.33Z" fill="#0085FF"/>
</g>
<defs>
<clipPath id="clip0_1_18">
<rect width="1437.98" height="383.18" fill="white"/>
</clipPath>
</defs>
</svg>
